# xmcd CD database file
#
# Track frame offsets:
#	150
#	14898
#	32346
#
# Disc length: 695 seconds
#
# Revision: 2
# Processed by: cddbd v1.5.2PL0 Copyright (c) Steve Scherf et al.
# Submitted via: CDex 1.51
#
DISCID=1c02b503
DTITLE=Jessica Brooks - Jessica Brooks
DYEAR=2010
DGENRE=Country
TTITLE0=Small Town Runaway
TTITLE1=In Love
TTITLE2=The Dream
EXTD=YEAR: 2010
EXTT0=
EXTT1=
EXTT2=
PLAYORDER=
